<mxfile host="65bd71144e">
    <diagram id="YZqu8ZBuUgcYDuFNKxzX" name="Page-1">
        <mxGraphModel dx="1702" dy="1282" grid="1" gridSize="10" guides="1" tooltips="1" connect="1" arrows="1" fold="1" page="0" pageScale="1" pageWidth="850" pageHeight="1100" math="1" shadow="0">
            <root>
                <mxCell id="0"/>
                <mxCell id="1" parent="0"/>
                <mxCell id="2" value="" style="group" vertex="1" connectable="0" parent="1">
                    <mxGeometry x="-140" y="-100" width="1430" height="640" as="geometry"/>
                </mxCell>
                <mxCell id="CmZ-viIZXWgQRcZgPTLP-18" value="" style="group" parent="2" vertex="1" connectable="0">
                    <mxGeometry x="415.1612903225806" y="270.22222222222223" width="553.5483870967741" height="369.77777777777777" as="geometry"/>
                </mxCell>
                <object label="\(z_i\)" id="CmZ-viIZXWgQRcZgPTLP-19">
                    <mxCell style="ellipse;whiteSpace=wrap;html=1;aspect=fixed;fillColor=#dae8fc;strokeColor=#6c8ebf;fontSize=15;dashed=1;spacingBottom=40;container=0;" parent="CmZ-viIZXWgQRcZgPTLP-18" vertex="1">
                        <mxGeometry y="-14.222222222222223" width="341.33333333333337" height="341.33333333333337" as="geometry"/>
                    </mxCell>
                </object>
                <mxCell id="CmZ-viIZXWgQRcZgPTLP-20" value="" style="ellipse;fillColor=#000000;strokeColor=#000000;dashed=1;fontSize=26;opacity=60;labelBackgroundColor=none;container=0;" parent="CmZ-viIZXWgQRcZgPTLP-18" vertex="1">
                    <mxGeometry x="159.13387096774193" y="146.20022222222224" width="23.064516129032256" height="20.494222222222223" as="geometry"/>
                </mxCell>
                <mxCell id="CmZ-viIZXWgQRcZgPTLP-21" value="" style="endArrow=classic;html=1;rounded=0;fontSize=26;entryX=1;entryY=0.5;entryDx=0;entryDy=0;exitX=1;exitY=0.5;exitDx=0;exitDy=0;" parent="CmZ-viIZXWgQRcZgPTLP-18" source="CmZ-viIZXWgQRcZgPTLP-20" target="CmZ-viIZXWgQRcZgPTLP-19" edge="1">
                    <mxGeometry relative="1" as="geometry">
                        <mxPoint y="440.8888888888889" as="sourcePoint"/>
                        <mxPoint x="-328.64342022537124" y="459.0344827586208" as="targetPoint"/>
                    </mxGeometry>
                </mxCell>
                <mxCell id="CmZ-viIZXWgQRcZgPTLP-22" value="\(\alpha_i + \gamma\)" style="edgeLabel;resizable=0;html=1;align=center;verticalAlign=middle;dashed=1;labelBackgroundColor=none;fontSize=15;strokeColor=#6C8EBF;fillColor=#000000;opacity=60;container=0;spacingBottom=30;" parent="CmZ-viIZXWgQRcZgPTLP-21" connectable="0" vertex="1">
                    <mxGeometry relative="1" as="geometry"/>
                </mxCell>
                <object label="\(z_j\)" id="CmZ-viIZXWgQRcZgPTLP-2">
                    <mxCell style="ellipse;whiteSpace=wrap;html=1;aspect=fixed;fillColor=#f8cecc;strokeColor=#b85450;fontSize=15;dashed=1;spacingBottom=40;container=0;" parent="2" vertex="1">
                        <mxGeometry x="953.3333333333333" y="113.77777777777779" width="209.22311111111114" height="209.22311111111114" as="geometry"/>
                    </mxCell>
                </object>
                <mxCell id="CmZ-viIZXWgQRcZgPTLP-12" value="" style="ellipse;fillColor=#000000;strokeColor=#000000;dashed=1;fontSize=26;opacity=60;labelBackgroundColor=none;container=0;" parent="2" vertex="1">
                    <mxGeometry x="1055.7551612903226" y="207.2888888888889" width="20.588924731182797" height="20.266666666666666" as="geometry"/>
                </mxCell>
                <mxCell id="CmZ-viIZXWgQRcZgPTLP-14" value="" style="endArrow=classic;html=1;rounded=0;fontSize=26;entryX=0;entryY=0.5;entryDx=0;entryDy=0;exitX=0;exitY=0.5;exitDx=0;exitDy=0;" parent="2" source="CmZ-viIZXWgQRcZgPTLP-12" target="CmZ-viIZXWgQRcZgPTLP-2" edge="1">
                    <mxGeometry relative="1" as="geometry">
                        <mxPoint x="1143.5204978156082" y="564.9655172413794" as="sourcePoint"/>
                        <mxPoint x="725.1087359546033" y="519.8467432950192" as="targetPoint"/>
                    </mxGeometry>
                </mxCell>
                <mxCell id="CmZ-viIZXWgQRcZgPTLP-15" value="\(\alpha_j + \gamma\)" style="edgeLabel;resizable=0;html=1;align=center;verticalAlign=middle;dashed=1;labelBackgroundColor=none;fontSize=15;strokeColor=#6C8EBF;fillColor=#000000;opacity=60;container=0;spacingBottom=30;" parent="CmZ-viIZXWgQRcZgPTLP-14" connectable="0" vertex="1">
                    <mxGeometry relative="1" as="geometry"/>
                </mxCell>
                <mxCell id="CmZ-viIZXWgQRcZgPTLP-29" value="" style="endArrow=classic;startArrow=classic;html=1;rounded=0;fontSize=15;" parent="2" source="CmZ-viIZXWgQRcZgPTLP-19" target="CmZ-viIZXWgQRcZgPTLP-2" edge="1">
                    <mxGeometry width="50" height="50" relative="1" as="geometry">
                        <mxPoint x="784.1935483870967" y="384" as="sourcePoint"/>
                        <mxPoint x="907.2043010752687" y="327.11111111111114" as="targetPoint"/>
                    </mxGeometry>
                </mxCell>
                <mxCell id="CmZ-viIZXWgQRcZgPTLP-30" value="\(\theta^T x_{i,j}\)" style="edgeLabel;html=1;align=center;verticalAlign=middle;resizable=0;points=[];fontSize=15;" parent="CmZ-viIZXWgQRcZgPTLP-29" vertex="1" connectable="0">
                    <mxGeometry x="-0.1746" y="1" relative="1" as="geometry">
                        <mxPoint as="offset"/>
                    </mxGeometry>
                </mxCell>
                <mxCell id="CmZ-viIZXWgQRcZgPTLP-33" value="\( y_{ij} =\mathbb{1}_{d(z_i,z_j) \leq 2\gamma + \alpha_i + \alpha_j + \theta^T x_{i,j}} \)" style="text;html=1;align=center;verticalAlign=middle;resizable=0;points=[];autosize=1;strokeColor=none;fillColor=none;fontSize=24;" parent="2" vertex="1">
                    <mxGeometry x="240" y="100" width="930" height="30" as="geometry"/>
                </mxCell>
            </root>
        </mxGraphModel>
    </diagram>
</mxfile>